<svg width="174" height="174" viewBox="0 0 174 174" fill="none" xmlns="http://www.w3.org/2000/svg">
<g filter="url(#filter0_f_8_65)">
<rect x="60" y="60" width="54" height="54" fill="#2CE152"/>
</g>
<path d="M102.269 71.39C107.605 76.7263 109.594 84.1589 108.239 91.0611H111.299C111.536 89.6755 111.659 88.2641 111.659 86.8271C111.659 80.1928 109.079 73.9603 104.386 69.273C99.6938 64.5857 93.4613 62 86.8321 62C85.4002 62 83.9837 62.1236 82.5981 62.3606V65.4202C89.5003 64.0655 96.9329 66.0537 102.269 71.39Z" fill="white"/>
<path d="M100.42 73.2392C95.5937 68.4129 88.8152 66.6976 82.5981 68.0884V71.1737C88.022 69.716 94.0588 71.1068 98.3031 75.3562C102.553 79.6057 103.943 85.6373 102.486 91.0611H105.571C106.962 84.8441 105.252 78.0656 100.42 73.2392Z" fill="white"/>
<path d="M96.5054 77.1538C92.7505 73.3989 87.3369 72.2914 82.5981 73.8264V77.0199C86.5025 75.3407 91.2052 76.0928 94.3884 79.276C97.5716 82.4592 98.3185 87.1619 96.6445 91.0663H99.838C101.368 86.3223 100.26 80.9088 96.5054 77.1538Z" fill="white"/>
<path d="M107.848 92.7197H105.123H101.95H99.1788H95.7483C95.3569 93.3069 94.9036 93.8683 94.3885 94.3834C90.2215 98.5504 83.443 98.5504 79.2759 94.3834C75.1089 90.2164 75.1089 83.4379 79.2759 79.2708C79.7962 78.7506 80.3525 78.2973 80.9396 77.911V74.4805V71.7094V68.5365V65.8065V62.7006C76.5614 63.7616 72.5438 66.0023 69.273 69.273C64.5857 73.9603 62 80.198 62 86.8271C62 93.4614 64.5806 99.6939 69.273 104.381C73.9654 109.068 80.1979 111.654 86.8271 111.654C93.4614 111.654 99.6939 109.074 104.381 104.381C107.647 101.116 109.893 97.0979 110.954 92.7145H107.848V92.7197Z" fill="#2CE152"/>
<defs>
<filter id="filter0_f_8_65" x="0" y="0" width="174" height="174" filterUnits="userSpaceOnUse" color-interpolation-filters="sRGB">
<feFlood flood-opacity="0" result="BackgroundImageFix"/>
<feBlend mode="normal" in="SourceGraphic" in2="BackgroundImageFix" result="shape"/>
<feGaussianBlur stdDeviation="30" result="effect1_foregroundBlur_8_65"/>
</filter>
</defs>
</svg>
